<?xml version="1.0" encoding="UTF-8" standalone="no"?>
<!-- Creator: CorelDRAW X6 -->

<svg
   xmlns:dc="http://purl.org/dc/elements/1.1/"
   xmlns:cc="http://creativecommons.org/ns#"
   xmlns:rdf="http://www.w3.org/1999/02/22-rdf-syntax-ns#"
   xmlns:svg="http://www.w3.org/2000/svg"
   xmlns="http://www.w3.org/2000/svg"
   xmlns:sodipodi="http://sodipodi.sourceforge.net/DTD/sodipodi-0.dtd"
   xmlns:inkscape="http://www.inkscape.org/namespaces/inkscape"
   xml:space="preserve"
   width="1024"
   height="1024"
   version="1.1"
   style="clip-rule:evenodd;fill-rule:evenodd;image-rendering:optimizeQuality;shape-rendering:geometricPrecision;text-rendering:geometricPrecision"
   viewBox="0 0 70865.874 70865.863"
   id="svg14"
   sodipodi:docname="logo-sync.svg"
   inkscape:version="0.92.4 5da689c313, 2019-01-14"
   inkscape:export-filename="/home/caligaris/logo-sync.png"
   inkscape:export-xdpi="96"
   inkscape:export-ydpi="96"><metadata
     id="metadata18"><rdf:RDF><cc:Work
         rdf:about=""><dc:format>image/svg+xml</dc:format><dc:type
           rdf:resource="http://purl.org/dc/dcmitype/StillImage" /><dc:title></dc:title></cc:Work></rdf:RDF></metadata><sodipodi:namedview
     pagecolor="#ffffff"
     bordercolor="#666666"
     borderopacity="1"
     objecttolerance="10"
     gridtolerance="10"
     guidetolerance="10"
     inkscape:pageopacity="0"
     inkscape:pageshadow="2"
     inkscape:window-width="1920"
     inkscape:window-height="912"
     id="namedview16"
     showgrid="false"
     inkscape:zoom="0.35355339"
     inkscape:cx="991.79071"
     inkscape:cy="536.92616"
     inkscape:window-x="0"
     inkscape:window-y="0"
     inkscape:window-maximized="1"
     inkscape:current-layer="svg14"
     fit-margin-top="0"
     fit-margin-left="0"
     fit-margin-right="0"
     fit-margin-bottom="0"
     units="px" /><defs
     id="defs4"><style
       type="text/css"
       id="style2"><![CDATA[
    .fil2 {fill:#11A861}
    .fil0 {fill:#3777E3}
    .fil1 {fill:#FFCF63}
   ]]></style><linearGradient
       gradientUnits="userSpaceOnUse"
       y2="20"
       x2="10"
       x1="10"
       id="linear-gradient"
       gradientTransform="matrix(69.204952,0,0,69.204952,-198693.73,32442.42)"><stop
         id="stop4533"
         stop-color="#DFDBD2"
         offset="0" /><stop
         id="stop4535"
         stop-color="#DFDBD2"
         offset="1" /></linearGradient></defs><path
     style="color:#dfdfdf;fill:currentColor;stroke-width:3441.38452148"
     class="ColorScheme-Text"
     d="M 23194.601,6643.6748 41736.496,39302.812 a 17483.356,16934.861 0 0 1 12928.117,-5563.341 17483.356,16934.861 0 0 1 7246.029,1541.304 L 44174.592,6643.6748 Z M 21446.239,10030.648 2214.5584,43900.345 12704.58,60835.217 31936.259,28658.986 Z m 33218.374,27095.799 c -7724.513,0 -13986.694,6065.719 -13986.694,13547.847 0,7482.177 6262.181,13547.899 13986.694,13547.899 7724.516,0 13986.697,-6065.722 13986.697,-13547.899 0,-7482.128 -6262.181,-13547.847 -13986.697,-13547.847 z m 0,3386.923 a 10490.014,10160.916 0 0 1 10490.021,10160.924 h -3496.673 a 6993.3426,6773.9442 0 0 0 -6993.348,-6773.949 z m -16028.664,3406.846 -11944.675,13.558 -10490.022,16901.739 h 24504 a 17483.356,16934.861 0 0 1 -3524.006,-10160.877 17483.356,16934.861 0 0 1 1454.703,-6754.127 z m 5538.643,6754.078 h 3496.676 a 6993.3426,6773.9442 0 0 0 6993.345,6773.951 v 3386.972 A 10490.014,10160.916 0 0 1 44174.592,50674.294 Z"
     id="path5"
     inkscape:connector-curvature="0" /></svg>