<?xml version="1.0" encoding="UTF-8" standalone="no"?>
<svg
   xmlns:dc="http://purl.org/dc/elements/1.1/"
   xmlns:cc="http://creativecommons.org/ns#"
   xmlns:rdf="http://www.w3.org/1999/02/22-rdf-syntax-ns#"
   xmlns:svg="http://www.w3.org/2000/svg"
   xmlns="http://www.w3.org/2000/svg"
   xmlns:sodipodi="http://sodipodi.sourceforge.net/DTD/sodipodi-0.dtd"
   xmlns:inkscape="http://www.inkscape.org/namespaces/inkscape"
   xml:space="preserve"
   width="1024"
   height="1024"
   version="1.1"
   style="clip-rule:evenodd;fill-rule:evenodd;image-rendering:optimizeQuality;shape-rendering:geometricPrecision;text-rendering:geometricPrecision"
   viewBox="0 0 70865.874 70865.863"
   id="svg14"
   sodipodi:docname="logo-sync.svg"
   inkscape:version="1.0.1 (3bc2e813f5, 2020-09-07)"
   inkscape:export-filename="/home/algent/Repository/odrive/files/images/logo-sync.png"
   inkscape:export-xdpi="2.25"
   inkscape:export-ydpi="2.25"><metadata
     id="metadata18"><rdf:RDF><cc:Work
         rdf:about=""><dc:format>image/svg+xml</dc:format><dc:type
           rdf:resource="http://purl.org/dc/dcmitype/StillImage" /><dc:title /></cc:Work></rdf:RDF></metadata><sodipodi:namedview
     pagecolor="#ffffff"
     bordercolor="#666666"
     borderopacity="1"
     objecttolerance="10"
     gridtolerance="10"
     guidetolerance="10"
     inkscape:pageopacity="0"
     inkscape:pageshadow="2"
     inkscape:window-width="1280"
     inkscape:window-height="958"
     id="namedview16"
     showgrid="false"
     inkscape:zoom="0.35355339"
     inkscape:cx="482.67383"
     inkscape:cy="536.92616"
     inkscape:window-x="0"
     inkscape:window-y="0"
     inkscape:window-maximized="1"
     inkscape:current-layer="svg14"
     fit-margin-top="0"
     fit-margin-left="0"
     fit-margin-right="0"
     fit-margin-bottom="0"
     units="px"
     inkscape:document-rotation="0" /><defs
     id="defs4"><style
       type="text/css"
       id="style2"><![CDATA[
    .fil2 {fill:#11A861}
    .fil0 {fill:#3777E3}
    .fil1 {fill:#FFCF63}
   ]]></style><linearGradient
       gradientUnits="userSpaceOnUse"
       y2="20"
       x2="10"
       x1="10"
       id="linear-gradient"
       gradientTransform="matrix(69.204952,0,0,69.204952,-198693.73,32442.42)"><stop
         id="stop4533"
         stop-color="#DFDBD2"
         offset="0" /><stop
         id="stop4535"
         stop-color="#DFDBD2"
         offset="1" /></linearGradient></defs><path
     style="color:#dfdfdf;fill:currentColor;stroke-width:2867.82"
     class="ColorScheme-Text"
     d="M 25234.323,11072.792 40685.902,38288.74 a 14569.463,14112.384 0 0 1 10773.431,-4636.118 14569.463,14112.384 0 0 1 6038.358,1284.42 L 42717.649,11072.792 Z M 23777.355,13895.27 7750.9544,42120.017 16492.639,56232.41 32519.038,29418.885 Z m 27681.978,22579.832 c -6437.094,0 -11655.578,5054.766 -11655.578,11289.873 0,6235.147 5218.484,11289.915 11655.578,11289.915 6437.097,0 11655.581,-5054.768 11655.581,-11289.915 0,-6235.107 -5218.484,-11289.873 -11655.581,-11289.873 z m 0,2822.436 a 8741.6783,8467.43 0 0 1 8741.684,8467.437 h -2913.894 a 5827.7855,5644.9535 0 0 0 -5827.79,-5644.958 z m -13357.22,2839.038 -9953.896,11.299 -8741.685,14084.782 h 20420 a 14569.463,14112.384 0 0 1 -2936.671,-8467.397 14569.463,14112.384 0 0 1 1212.252,-5628.44 z m 4615.536,5628.399 h 2913.897 a 5827.7855,5644.9535 0 0 0 5827.787,5644.959 v 2822.476 a 8741.6783,8467.43 0 0 1 -8741.684,-8467.435 z"
     id="path5"
     inkscape:connector-curvature="0" /></svg>
