<?xml version="1.0" encoding="UTF-8" standalone="no"?>
<!-- Creator: CorelDRAW X6 -->

<svg
   xmlns:dc="http://purl.org/dc/elements/1.1/"
   xmlns:cc="http://creativecommons.org/ns#"
   xmlns:rdf="http://www.w3.org/1999/02/22-rdf-syntax-ns#"
   xmlns:svg="http://www.w3.org/2000/svg"
   xmlns="http://www.w3.org/2000/svg"
   xmlns:sodipodi="http://sodipodi.sourceforge.net/DTD/sodipodi-0.dtd"
   xmlns:inkscape="http://www.inkscape.org/namespaces/inkscape"
   xml:space="preserve"
   width="410.70853"
   height="410.70853"
   version="1.1"
   style="clip-rule:evenodd;fill-rule:evenodd;image-rendering:optimizeQuality;shape-rendering:geometricPrecision;text-rendering:geometricPrecision"
   viewBox="0 0 28423.065 28423.061"
   id="svg14"
   sodipodi:docname="sync.svg"
   inkscape:version="0.92.4 5da689c313, 2019-01-14"
   inkscape:export-filename="/home/caligaris/logo-sync.png"
   inkscape:export-xdpi="96"
   inkscape:export-ydpi="96"><metadata
     id="metadata18"><rdf:RDF><cc:Work
         rdf:about=""><dc:format>image/svg+xml</dc:format><dc:type
           rdf:resource="http://purl.org/dc/dcmitype/StillImage" /><dc:title /></cc:Work></rdf:RDF></metadata><sodipodi:namedview
     pagecolor="#ffffff"
     bordercolor="#666666"
     borderopacity="1"
     objecttolerance="10"
     gridtolerance="10"
     guidetolerance="10"
     inkscape:pageopacity="0"
     inkscape:pageshadow="2"
     inkscape:window-width="1920"
     inkscape:window-height="912"
     id="namedview16"
     showgrid="false"
     inkscape:zoom="1.4142136"
     inkscape:cx="147.4722"
     inkscape:cy="222.62337"
     inkscape:window-x="0"
     inkscape:window-y="0"
     inkscape:window-maximized="1"
     inkscape:current-layer="svg14"
     fit-margin-top="0"
     fit-margin-left="0"
     fit-margin-right="0"
     fit-margin-bottom="0"
     units="px" /><defs
     id="defs4"><style
       type="text/css"
       id="style2"><![CDATA[
    .fil2 {fill:#11A861}
    .fil0 {fill:#3777E3}
    .fil1 {fill:#FFCF63}
   ]]></style><linearGradient
       gradientUnits="userSpaceOnUse"
       y2="20"
       x2="10"
       x1="10"
       id="linear-gradient"
       gradientTransform="matrix(69.204952,0,0,69.204952,-198693.73,32442.42)"><stop
         id="stop4533"
         stop-color="#DFDBD2"
         offset="0" /><stop
         id="stop4535"
         stop-color="#DFDBD2"
         offset="1" /></linearGradient></defs><g
     transform="matrix(616.82673,0,0,616.82673,-632.71002,-579.5133)"
     id="g7"
     inkscape:export-xdpi="4.2146339"
     inkscape:export-ydpi="4.2146339"><path
       style="color:#dfdfdf;fill:currentColor"
       class="ColorScheme-Text"
       d="m -25.406,12 c -4.4184,0 -8,3.5816 -8,8 0,4.4184 3.5816,8 8,8 4.4184,0 8,-3.5816 8,-8 0,-4.4184 -3.5816,-8 -8,-8 z m 0,2.5 c 2.304,0 4.3675,1.303 5.2812,3.3125 l 1.2188,-0.46875 -1,3.4688 -3.3125,-1.8438 1.2812,-0.5 c -0.62086,-1.3102 -1.9541,-2.125 -3.4688,-2.125 -1.5726,0 -2.9961,0.93957 -3.5625,2.3438 l -1.781,-0.687 c 0.8448,-2.1035 2.9848,-3.5 5.3438,-3.5 z m -5.5,4.7188 3.3125,1.7812 -1.2812,0.5 c 0.61336,1.3047 1.9641,2.1562 3.4688,2.1562 1.5756,0 2.9786,-0.91032 3.5625,-2.3125 l 1.7812,0.6875 c -0.8768,2.103 -2.9793,3.4688 -5.3438,3.4688 -2.2925,0 -4.387,-1.3392 -5.2812,-3.3438 l -1.2188,0.4375 1,-3.375 z"
       transform="matrix(2.875,0,0,2.875,97.068,-33.481)"
       id="path5"
       inkscape:connector-curvature="0" /></g></svg>